<?xml version="1.0" standalone="no"?>
<!DOCTYPE svg PUBLIC "-//W3C//DTD SVG 20010904//EN"
 "http://www.w3.org/TR/2001/REC-SVG-20010904/DTD/svg10.dtd">
<svg version="1.0" xmlns="http://www.w3.org/2000/svg"
 width="233.000000pt" height="233.000000pt" viewBox="0 0 233.000000 233.000000"
 preserveAspectRatio="xMidYMid meet">

<g transform="translate(0.000000,233.000000) scale(0.100000,-0.100000)"
fill="yellow" stroke="none">
<path d="M1012 2319 c-247 -32 -487 -152 -668 -333 -456 -456 -456 -1186 0
-1642 456 -456 1186 -456 1642 0 456 456 456 1186 0 1642 -257 257 -615 380
-974 333z m219 -830 c69 -24 127 -85 143 -151 6 -27 5 -28 -34 -28 -36 0 -41
3 -60 40 -29 58 -71 80 -148 80 -113 0 -168 -45 -198 -160 -46 -180 37 -340
177 -340 89 0 137 32 175 118 22 48 26 52 59 52 32 0 35 -3 35 -27 -1 -67 -77
-166 -150 -196 -79 -33 -176 -29 -250 8 -41 21 -92 77 -111 123 -79 184 -16
412 131 476 42 18 182 21 231 5z m-431 -34 l0 -35 -182 -2 -183 -3 -3 -92 -3
-93 171 0 171 0 -3 -37 -3 -38 -140 -2 c-77 -1 -153 -2 -168 -3 l-28 0 3 -102
3 -103 176 -1 c96 0 180 -3 186 -7 5 -3 8 -20 5 -37 l-4 -30 -227 2 -226 3 -3
295 c-1 162 0 300 3 307 3 10 58 13 230 13 l225 0 0 -35z m769 -7 c10 -24 51
-135 91 -248 41 -113 77 -209 80 -213 7 -8 28 47 127 341 l55 162 59 0 59 0 0
-310 0 -310 -40 0 -40 0 -1 253 0 252 -82 -240 c-46 -132 -86 -246 -90 -252
-5 -7 -28 -13 -51 -13 l-44 0 -50 143 c-27 78 -64 187 -82 242 -18 55 -36 104
-41 110 -5 5 -9 -99 -9 -244 l0 -252 -37 3 -38 3 -3 295 c-1 162 0 300 3 307
3 8 24 13 60 13 l56 0 18 -42z"/>
</g>
</svg>
