<svg viewBox="0 0 64 64"  xmlns="http://www.w3.org/2000/svg">
    <path d="m32.5535593 61.5c-15.7401154 0-28.50000003-12.7598846-28.50000003-28.5s12.75988463-28.5 28.50000003-28.5c15.7401153 0 28.5 12.7598846 28.5 28.5s-12.7598847 28.5-28.5 28.5zm-16.9748146-35.0976324c.1735574-.0645795.5430261-.1901723 1.0898151-.3568323.9330906-.2844039 2.0070369-.570366 3.2030993-.8380856 7.9950946-1.7895756 16.4977478-1.8350476 24.3904872.9894068 2.0477511.7327975 4.0146476 1.6520205 5.892455 2.7685547 1.0840983.644599 2.4854843.2883144 3.1300833-.7957839s.2883144-2.4854844-.7957839-3.1300833c-2.1341472-1.2689524-4.3675332-2.3127186-6.6878477-3.1430542-8.825418-3.1582179-18.1611256-3.1082907-26.9270534-1.1461763-2.2570463.5052042-3.9336571 1.0162314-4.8880705 1.3713619-1.1820805.4398439-1.7837822 1.7546735-1.3439383 2.936754s1.7546734 1.7837821 2.9367539 1.3439382zm3.4884851 8.5458156c.0511329-.027697.2167507-.1069244.4945037-.2218844.5050044-.2090178 1.1177374-.4223628 1.8360494-.624366 6.5194582-1.8333973 15.1786763-1.3426636 25.8271706 3.2209767 1.1592809.4968347 2.5018279-.0401841 2.9986626-1.199465.4968346-1.1592809-.0401841-2.5018279-1.1994651-2.9986626-11.62125-4.9805357-21.3517743-5.5319822-28.8628534-3.419722-1.5509776.4361648-2.6465524.8896154-3.2694562 1.2270216-1.1090158.6007169-1.5210735 1.9867292-.9203566 3.095745.6007169 1.1090159 1.9867292 1.5210736 3.095745.9203567zm.6608364 8.338887c.0877416-.0344699.2981727-.1095213.6212443-.2121383.5634039-.1789535 1.2199823-.3597981 1.9596036-.5296672 6.7486878-1.5499733 14.1213663-1.0642559 21.0286576 2.8827677 1.0950804.6257602 2.4900974.245301 3.1158576-.8497794.6257603-1.0950804.2453011-2.4900973-.8497793-3.1158576-8.0380628-4.5931787-16.5452165-5.1536362-24.3171202-3.3686605-1.4911783.3424795-2.5921508.6921804-3.228554.942196-1.1739197.4611827-1.7517072 1.7866951-1.2905245 2.9606148.4611828 1.1739197 1.7866952 1.7517072 2.9606149 1.2905245z"
          fill="#80d25b" fill-rule="evenodd"/>
</svg>